<svg width="100" height="100" viewBox="0 0 100 100" fill="none" xmlns="http://www.w3.org/2000/svg">
<circle cx="50" cy="50" r="48" stroke="white" stroke-width="4"/>
<path d="M31.4092 66.7109C29.1827 66.7109 27.1319 66.3301 25.2569 65.5684C23.4014 64.8066 21.8096 63.7422 20.4815 62.375C19.1534 61.0078 18.1182 59.3867 17.376 57.5117C16.6339 55.6367 16.2628 53.5957 16.2628 51.3887V50.1582C16.2628 47.5996 16.6729 45.3145 17.4932 43.3027C18.3135 41.2715 19.4073 39.5527 20.7745 38.1465C22.1221 36.7598 23.6553 35.6953 25.3741 34.9531C27.1124 34.2109 28.8897 33.8398 30.7061 33.8398C32.9913 33.8398 34.9835 34.2402 36.6827 35.041C38.4014 35.8223 39.8272 36.9062 40.96 38.293C42.0928 39.6992 42.9327 41.3496 43.4796 43.2441C44.046 45.1387 44.3292 47.1895 44.3292 49.3965V51.8281H21.6827V52.0332C21.8194 53.5762 22.1221 54.9336 22.5909 56.1055C23.0792 57.2773 23.7432 58.3125 24.5831 59.2109C25.4424 60.168 26.4776 60.9199 27.6885 61.4668C28.8995 62.0137 30.2374 62.2871 31.7022 62.2871C33.6358 62.2871 35.3546 61.8965 36.8585 61.1152C38.3624 60.334 39.6124 59.2988 40.6085 58.0098L43.919 60.5879C42.8643 62.1895 41.2823 63.6152 39.1729 64.8652C37.0831 66.0957 34.4952 66.7109 31.4092 66.7109ZM30.7061 38.293C29.6124 38.293 28.5772 38.498 27.6006 38.9082C26.6241 39.2988 25.7452 39.875 24.9639 40.6367C24.1827 41.418 23.5186 42.375 22.9717 43.5078C22.4444 44.6211 22.0733 45.9102 21.8585 47.375H38.9092V47.1113C38.9092 46.1348 38.7237 45.0898 38.3526 43.9766C37.9815 42.8438 37.4639 41.8672 36.7999 41.0469C36.1358 40.2266 35.296 39.5625 34.2803 39.0547C33.2842 38.5469 32.0928 38.293 30.7061 38.293ZM66.5362 46.1738L75.003 34.4258H81.3604L69.5538 50.0996L81.6827 66.125H75.4131L66.6534 54.0547L57.8936 66.125H51.5655L63.6944 50.0996L51.8878 34.4258H58.1573L66.5362 46.1738Z" fill="white"/>
</svg>
