<svg width="107" height="107" viewBox="0 0 107 107" fill="none" xmlns="http://www.w3.org/2000/svg">
<g clip-path="url(#clip0_43_73)">
<path d="M106.562 60.2933C110.307 30.9806 89.606 4.18189 60.3468 0.437564C31.0875 -3.30676 4.18189 17.394 0.437564 46.6532C-3.30676 75.9125 17.394 102.765 46.6532 106.562C75.966 110.307 102.765 89.606 106.562 60.2933Z" fill="white"/>
<path d="M72.81 34.3504L50.2371 56.9233L43.8717 50.558C66.0702 28.3595 68.2633 30.2851 72.81 34.3504Z" fill="#2D1D1D"/>
<path d="M50.2371 57.4583C50.0766 57.4583 49.9697 57.4048 49.8627 57.2978L43.4438 50.9324C43.2299 50.7185 43.2299 50.3975 43.4438 50.1836C66.0168 27.6106 68.3703 29.7503 73.131 34.0295C73.238 34.1365 73.2915 34.2435 73.2915 34.4039C73.2915 34.5644 73.238 34.6714 73.131 34.7784L50.558 57.2978C50.5046 57.4048 50.3441 57.4583 50.2371 57.4583ZM44.6206 50.558L50.2371 56.1745L72.0077 34.4039C68.0494 30.8736 65.3749 29.8038 44.6206 50.558Z" fill="white"/>
<path d="M56.7094 63.3957L50.558 57.2443L73.131 34.6714C79.1754 40.7693 70.1355 50.665 56.7094 63.3957Z" fill="#2D1D1D"/>
<path d="M56.7094 63.9306C56.549 63.9306 56.442 63.8771 56.335 63.7701L50.1836 57.6187C50.0766 57.5118 50.0766 57.4048 50.0766 57.2443C50.0766 57.0838 50.1301 56.9769 50.2371 56.8699L72.81 34.2969C73.024 34.083 73.3449 34.083 73.5589 34.2969C74.9496 35.5807 75.6985 37.3994 75.645 39.2715C75.538 45.209 68.7983 52.7511 57.1374 63.7701C56.9769 63.8771 56.8164 63.9306 56.7094 63.9306ZM51.3069 57.2443C54.7303 60.7212 56.1745 62.1119 56.7094 62.6468C65.6958 54.0884 74.4147 45.316 74.4682 39.2715C74.5217 37.8808 73.9868 36.4901 73.0775 35.4202L51.3069 57.2443Z" fill="white"/>
<path d="M43.9787 50.7185L48.5254 55.2651C48.6324 55.3721 48.6324 55.4791 48.5254 55.5861C48.4719 55.6396 48.4719 55.6396 48.4184 55.6396L39.0041 57.6722C38.5227 57.7257 38.0948 57.4048 37.9878 56.9234C37.9343 56.6559 38.0413 56.3884 38.2018 56.228L43.6578 50.772C43.7648 50.665 43.9252 50.6115 43.9787 50.7185Z" fill="#2D1D1D"/>
<path d="M38.8436 58.2071C38.0413 58.2071 37.4529 57.5652 37.4529 56.7629C37.4529 56.3885 37.6134 56.014 37.8808 55.7466L43.3368 50.2906C43.6578 50.0231 44.0857 50.0231 44.4066 50.2906L48.9533 54.8372C49.2742 55.1047 49.2742 55.5861 48.9533 55.907C48.8463 56.014 48.7393 56.0675 48.5789 56.121L39.1646 58.1536C39.0576 58.1536 38.9506 58.2071 38.8436 58.2071ZM43.8182 51.3069L38.5762 56.5489C38.4692 56.6559 38.4157 56.8164 38.5227 56.9768C38.5762 57.1373 38.7367 57.1908 38.8971 57.1373L47.723 55.2117L43.8182 51.3069Z" fill="white"/>
<path d="M84.7384 21.8337C81.315 18.5173 75.8055 18.6242 72.4891 22.1011C69.1727 25.578 69.2797 31.034 72.7565 34.3504C75.5915 37.0784 79.8708 37.5598 83.2406 35.5272L77.1427 29.4293L84.7384 21.8337Z" fill="#2D1D1D"/>
<path d="M78.7475 37.2924C73.6659 37.2924 69.5471 33.1736 69.5471 28.0921C69.5471 23.0105 73.6659 18.8917 78.7475 18.8917C81.101 18.8917 83.4011 19.8011 85.1128 21.4593C85.2198 21.5662 85.2733 21.6732 85.2733 21.8337C85.2733 21.9942 85.2198 22.1011 85.1128 22.2081L77.8916 29.4293L83.5616 35.0993C83.7756 35.3133 83.7756 35.6342 83.5616 35.8482C83.5081 35.9017 83.5081 35.9017 83.4546 35.9551C82.0639 36.811 80.4057 37.2924 78.7475 37.2924ZM78.7475 20.015C74.2543 20.015 70.6169 23.6524 70.6704 28.1456C70.6704 32.6387 74.3078 36.2761 78.801 36.2226C80.0312 36.2226 81.2615 35.9551 82.3848 35.3668L76.7683 29.8038C76.6613 29.6968 76.6078 29.5898 76.6078 29.4293C76.6078 29.2689 76.6613 29.1619 76.7683 29.0549L83.936 21.8872C82.4918 20.6569 80.6731 20.015 78.7475 20.015Z" fill="white"/>
<path d="M84.8989 21.9942L84.7919 21.8872L77.1428 29.4293L83.1872 35.4738C83.7756 35.0993 84.364 34.6714 84.8454 34.19C88.2688 30.8201 88.2688 25.3641 84.8989 21.9942Z" fill="#2D1D1D"/>
<path d="M83.2406 36.0622C83.0802 36.0622 82.9732 36.0087 82.8662 35.9017L76.7683 29.8038C76.6613 29.6968 76.6078 29.5898 76.6078 29.4294C76.6078 29.2689 76.6613 29.1619 76.7683 29.0549L84.3639 21.4593C84.5779 21.2453 84.8988 21.2453 85.1128 21.4593L85.2733 21.5663C88.8571 25.1501 88.8571 30.9271 85.3267 34.5644C84.7918 35.0993 84.2034 35.5808 83.5616 35.9552C83.4011 36.0087 83.2941 36.0622 83.2406 36.0622ZM77.8916 29.4294L83.2941 34.8319C83.722 34.5644 84.15 34.19 84.4709 33.8691C87.5198 30.8201 87.6803 25.8455 84.7383 22.6361L77.8916 29.4294Z" fill="white"/>
<path d="M73.7194 35.3133C72.4356 34.0295 70.3495 34.0295 69.0657 35.3133L48.8998 55.4792L52.2697 58.849L73.6124 40.1274C75.0031 38.9506 75.1101 36.8645 73.9333 35.4738C73.8263 35.4203 73.7729 35.3668 73.7194 35.3133Z" fill="#2D1D1D"/>
<path d="M52.2162 59.3839C52.0558 59.3839 51.9488 59.3304 51.8418 59.2235L48.4719 55.8536C48.2579 55.6396 48.2579 55.3187 48.4719 55.1047L68.6378 34.9388C70.1355 33.4411 72.5426 33.4411 74.0403 34.9388C75.538 36.4366 75.538 38.8436 74.0403 40.3414C73.9868 40.3949 73.9333 40.4484 73.8798 40.5018L52.5372 59.2235C52.4837 59.3304 52.3767 59.3839 52.2162 59.3839ZM49.6487 55.4791L52.2697 58.1002L73.2379 39.6995C74.4147 38.7367 74.5217 36.9715 73.5589 35.7947C72.5961 34.6179 70.8309 34.5109 69.6541 35.4738C69.6006 35.5272 69.5471 35.5807 69.4401 35.6342L49.6487 55.4791Z" fill="white"/>
<path d="M33.4411 78.4265C33.2272 78.5335 33.1202 78.7474 33.1737 78.9614L34.083 82.8127C34.297 83.3476 33.976 83.9895 33.3876 84.15C32.9597 84.3104 32.4783 84.15 32.2108 83.829L26.3269 77.9986L45.5299 58.7955L52.1628 58.9025L56.6559 63.3957C55.5861 64.305 49.1138 70.5634 33.4411 78.4265Z" fill="#2D1D1D"/>
<path d="M33.0132 84.6849C32.5853 84.6849 32.1574 84.5244 31.8899 84.2034L26.0595 78.373C25.9525 78.266 25.899 78.159 25.899 77.9986C25.899 77.8381 25.9525 77.7311 26.0595 77.6241L45.2625 58.4211C45.3695 58.3141 45.5299 58.2606 45.6369 58.2606L52.2697 58.3676C52.4302 58.3676 52.5372 58.4211 52.6442 58.5281L57.1374 63.0213C57.2443 63.1282 57.2978 63.2887 57.2978 63.4492C57.2978 63.6097 57.2443 63.7166 57.0839 63.8236L56.7094 64.1446C51.0395 69.1192 43.3368 74.0938 33.7621 78.8544L34.6714 82.6522C34.8319 83.3476 34.5109 84.0965 33.8691 84.4709C33.5481 84.6314 33.2807 84.6849 33.0132 84.6849ZM27.1293 77.9986L32.6388 83.4546C32.7992 83.722 33.1202 83.829 33.3876 83.6685C33.6551 83.5081 33.7621 83.1871 33.6016 82.9197L32.6923 79.0684C32.5853 78.587 32.7992 78.159 33.2272 77.9451C42.695 73.1844 50.3441 68.2633 55.9606 63.3957L52.0023 59.4374L45.8509 59.3304L27.1293 77.9986Z" fill="white"/>
<path d="M21.7802 82.5987L26.3804 77.9985L33.2272 84.8453L22.3151 84.0964C21.8337 84.0429 21.5128 83.615 21.5663 83.1336C21.5663 82.9197 21.6198 82.7057 21.7802 82.5987Z" fill="#2D1D1D"/>
<path d="M33.2272 85.3267L22.2616 84.5779C21.4593 84.5244 20.9244 83.829 20.9779 83.0266C21.0314 82.7057 21.1383 82.3848 21.4058 82.1708L26.006 77.5706C26.2199 77.3567 26.5409 77.3567 26.7548 77.5706L33.6016 84.4174C33.7621 84.5779 33.8155 84.7918 33.7086 85.0058C33.6016 85.2197 33.4411 85.3267 33.2272 85.3267ZM26.3804 78.7474L22.1546 82.9731C21.9942 83.0801 21.9942 83.3476 22.1546 83.4546C22.2081 83.5081 22.2616 83.5615 22.3686 83.5615L31.8364 84.2034L26.3804 78.7474Z" fill="white"/>
<path d="M43.6578 61.2561C43.3368 61.2561 43.1229 60.9886 43.1229 60.7211C43.1229 60.5607 43.1764 60.4537 43.2833 60.3467L48.4719 55.1582C48.6859 54.9442 49.0068 54.9442 49.2208 55.1582L52.5907 58.528C52.7511 58.6885 52.8046 58.849 52.7511 59.0629C52.6976 59.2234 52.5372 59.3839 52.3232 59.4374L43.7647 61.2561C43.7113 61.2561 43.6578 61.2561 43.6578 61.2561ZM48.8463 56.2814L45.316 59.8118L51.0929 58.5815L48.8463 56.2814Z" fill="white"/>
<path d="M52.1628 58.9025L46.2788 60.1862C45.8509 60.2932 45.423 60.0258 45.316 59.5978C45.2625 59.3304 45.316 59.0629 45.5299 58.849L48.7929 55.5861L52.1628 58.9025Z" fill="#2D1D1D"/>
<path d="M46.1718 60.7211C45.423 60.7211 44.8346 60.1328 44.8346 59.3839C44.8346 59.0095 44.995 58.6885 45.209 58.4211L48.4719 55.1582C48.6859 54.9442 49.0068 54.9442 49.2208 55.1582L52.5907 58.528C52.7511 58.6885 52.8046 58.849 52.7511 59.0629C52.6976 59.2234 52.5372 59.3839 52.3232 59.4374L46.4393 60.7211C46.3323 60.7211 46.2253 60.7211 46.1718 60.7211ZM48.8463 56.2814L45.9579 59.1699C45.8509 59.2769 45.8509 59.3839 45.9044 59.4909C45.9579 59.5978 46.0648 59.6513 46.2253 59.6513L51.1464 58.5815L48.8463 56.2814Z" fill="white"/>
<path d="M84.9523 27.1292C84.8453 26.8083 84.4709 26.6478 84.15 26.7548C83.829 26.8618 83.6686 27.2362 83.7755 27.5572C83.7755 27.6107 83.829 27.6641 83.829 27.7176C84.15 28.3595 84.043 29.1619 83.6151 29.7503C83.4011 30.0177 83.4546 30.3922 83.6686 30.6061C83.936 30.8201 84.3104 30.7666 84.5244 30.4991C85.3268 29.4828 85.4872 28.199 84.9523 27.1292Z" fill="white"/>
</g>
<defs>
<clipPath id="clip0_43_73">
<rect width="107" height="107" fill="white"/>
</clipPath>
</defs>
</svg>
